<svg width="50" height="50" viewBox="0 0 50 50" fill="none" xmlns="http://www.w3.org/2000/svg">
<g clip-path="url(#clip0_1_6)">
<path d="M25 0C31.6304 0 37.9893 2.63392 42.6777 7.32233C47.3661 12.0107 50 18.3696 50 25C50 31.6304 47.3661 37.9893 42.6777 42.6777C37.9893 47.3661 31.6304 50 25 50C18.3696 50 12.0107 47.3661 7.32233 42.6777C2.63392 37.9893 0 31.6304 0 25C0 18.3696 2.63392 12.0107 7.32233 7.32233C12.0107 2.63392 18.3696 0 25 0Z" fill="#2A9D8F"/>
<path d="M24.0234 14.1504C16.7578 14.1504 11.0938 18.7305 11.0938 24.4238C11.0938 29.7949 16.2988 33.2227 24.3652 33.0566L24.6094 33.0469L25.498 33.0176L25.2734 33.6035L25.3027 33.6621C25.3671 33.8128 25.4257 33.9659 25.4785 34.1211L25.498 34.1797L25.5273 34.2773L25.5664 34.4141L25.5957 34.502L25.6348 34.5996L25.6641 34.707L25.7031 34.8633L25.752 35.0293L25.7812 35.1367L25.8301 35.3125L25.8789 35.498L25.918 35.6836L25.9668 35.8789L26.0059 36.0156L26.0547 36.2305L26.1035 36.4453L26.1719 36.7383L26.2012 36.8945L26.25 37.1289L26.2988 37.373L26.3574 37.627L26.4258 37.9883L26.4844 38.2812L26.5625 38.6914L26.6016 38.8965L26.6699 39.2188L26.7285 39.5508L26.8066 40L26.8945 40.4688L26.9727 40.957L27.0605 41.4551L27.1484 41.9629L27.2363 42.4902L27.3242 43.0371L27.3926 43.457L27.5 44.1699L27.5488 44.4629L27.666 45.2148L27.7539 45.8301L27.832 46.2988L27.9199 46.9434L27.9688 47.2656C33.3301 46.5527 38.0957 43.9551 41.5723 40.1562L41.6797 40.0391L41.1816 38.1836L39.8633 33.252L39.043 30.1855L38.3203 27.4902L37.8711 25.8496L37.5879 24.8145L37.4219 24.1895L37.2656 23.6426L37.207 23.4082L37.168 23.2812L37.1484 23.2129L37.1289 23.1543C36.3672 20.7031 34.8926 18.5352 32.8809 16.9629C30.5176 15.1172 27.5195 14.1504 24.0234 14.1504ZM17.6367 40.2148C17.002 40.0391 16.3379 40.4102 16.1523 41.0449L16.1426 41.0742L15.0488 45.1367C15.7327 45.4751 16.4335 45.7783 17.1484 46.0449L17.3145 46.1133L18.4961 41.709L18.5059 41.6797C18.6621 41.0352 18.2812 40.3809 17.6367 40.2148ZM24.4434 37.2363C23.7988 37.0605 23.1348 37.4316 22.9492 38.0664L22.9395 38.0957L21.2793 44.248V44.2773C21.215 44.5826 21.27 44.9009 21.433 45.1669C21.596 45.4329 21.8547 45.6264 22.1559 45.7077C22.4571 45.7889 22.778 45.7517 23.0527 45.6038C23.3273 45.4558 23.5349 45.2083 23.6328 44.9121L23.6426 44.8828L25.3027 38.7305V38.7012L25.332 38.5645L25.3418 38.5156L25.3027 38.3105L25.2441 38.0273L25.2051 37.8516C25.1275 37.702 25.0197 37.5701 24.8886 37.4642C24.7575 37.3583 24.6059 37.2807 24.4434 37.2363ZM12.8711 30.8984L12.793 31.084L12.7832 31.123L11.123 37.2754L11.1133 37.3047C11.0393 37.613 11.0881 37.938 11.2495 38.2109C11.4109 38.4838 11.6721 38.6832 11.9778 38.7669C12.2836 38.8507 12.61 38.8122 12.8879 38.6595C13.1658 38.5069 13.3734 38.2522 13.4668 37.9492L13.4766 37.9199L14.9805 32.334C14.1992 31.9238 13.4863 31.4355 12.8711 30.8984ZM8.91602 23.8184C8.27148 23.6523 7.60742 24.0234 7.42188 24.6484L7.41211 24.6777L5.75195 30.8301V30.8594C5.67796 31.1677 5.72682 31.4926 5.88817 31.7655C6.04953 32.0385 6.31074 32.2379 6.61652 32.3216C6.9223 32.4054 7.24867 32.3668 7.52656 32.2142C7.80445 32.0616 8.01206 31.8069 8.10547 31.5039L8.11523 31.4746L9.77539 25.3223V25.293C9.93164 24.6484 9.55078 23.9941 8.91602 23.8184ZM46.1328 22.4219C45.498 22.2559 44.834 22.627 44.6484 23.252L44.6387 23.2812L42.9785 29.4336L42.9688 29.4629C42.8833 29.7763 42.9258 30.1108 43.087 30.3928C43.2481 30.6749 43.5147 30.8813 43.8281 30.9668C44.1415 31.0523 44.476 31.0097 44.7581 30.8486C45.0401 30.6874 45.2466 30.4208 45.332 30.1074V30.0781L47.002 23.9258V23.8867C47.1582 23.252 46.7773 22.5977 46.1328 22.4219ZM5.29297 14.209C3.90186 16.7422 3.01631 19.5216 2.68555 22.3926C2.84575 22.574 3.05664 22.7033 3.29102 22.7637C3.92578 22.9297 4.58984 22.5586 4.77539 21.9336L4.78516 21.9043L6.44531 15.752L6.45508 15.7227C6.61133 15.0781 6.23047 14.4238 5.58594 14.248C5.49019 14.2234 5.39183 14.2103 5.29297 14.209ZM41.9336 14.248C41.2891 14.082 40.6348 14.4531 40.4395 15.0781V15.1074L38.7793 21.2598L38.7695 21.2891C38.6955 21.5973 38.7444 21.9223 38.9058 22.1952C39.0671 22.4681 39.3283 22.6676 39.6341 22.7513C39.9399 22.835 40.2662 22.7965 40.5441 22.6439C40.822 22.4913 41.0296 22.2366 41.123 21.9336L41.1328 21.9043L42.793 15.752L42.8027 15.7227C42.959 15.0781 42.5684 14.4238 41.9336 14.248Z" fill="white"/>
<path d="M25.5859 18.2617C26.0003 18.2617 26.3978 18.4263 26.6908 18.7194C26.9838 19.0124 27.1484 19.4098 27.1484 19.8242C27.1484 20.2386 26.9838 20.636 26.6908 20.9291C26.3978 21.2221 26.0003 21.3867 25.5859 21.3867C25.1715 21.3867 24.7741 21.2221 24.4811 20.9291C24.1881 20.636 24.0234 20.2386 24.0234 19.8242C24.0234 19.4098 24.1881 19.0124 24.4811 18.7194C24.7741 18.4263 25.1715 18.2617 25.5859 18.2617Z" fill="black"/>
<path d="M12.5195 8.39844C11.8848 8.23242 11.2207 8.60352 11.0351 9.22852L11.0254 9.25781L9.36522 15.4102L9.35546 15.4395C9.28147 15.7477 9.33032 16.0727 9.49168 16.3456C9.65304 16.6185 9.91424 16.8179 10.22 16.9017C10.5258 16.9854 10.8522 16.9469 11.1301 16.7943C11.408 16.6417 11.6156 16.387 11.709 16.084L11.7187 16.0547L13.3789 9.90234L13.3887 9.86328C13.5449 9.22852 13.1641 8.57422 12.5195 8.39844ZM33.8574 9.56055C33.2129 9.39453 32.5488 9.76562 32.3633 10.3906L32.3535 10.4199L31.2402 14.5605C31.9626 14.9157 32.6521 15.334 33.3008 15.8105L33.4082 15.8984L34.7168 11.0645V11.0352C34.873 10.3906 34.4922 9.73633 33.8574 9.56055ZM22.998 2.62695C22.218 2.69702 21.4422 2.80785 20.6738 2.95898L20.5078 2.98828L18.9648 8.7207L18.9551 8.75C18.8907 9.05527 18.9457 9.37359 19.1087 9.63959C19.2718 9.90558 19.5304 10.0991 19.8317 10.1803C20.1329 10.2615 20.4538 10.2244 20.7284 10.0764C21.0031 9.92848 21.2107 9.68099 21.3086 9.38477L21.3184 9.35547L22.9785 3.20312L22.9883 3.17383C23.0332 2.99467 23.0365 2.8076 22.998 2.62695ZM38.2715 6.875L37.9492 8.08594L37.9394 8.11523C37.8751 8.42051 37.9301 8.73882 38.0931 9.00482C38.2561 9.27082 38.5148 9.4643 38.816 9.54554C39.1173 9.62678 39.4381 9.58961 39.7128 9.44166C39.9875 9.29372 40.1951 9.04622 40.293 8.75L40.3027 8.7207L40.3418 8.59375C39.7309 8.02139 39.0886 7.48345 38.418 6.98242L38.2715 6.875ZM28.6133 2.83203L28.0273 5.00977L28.0176 5.03906C27.9532 5.34433 28.0082 5.66265 28.1713 5.92865C28.3343 6.19465 28.5929 6.38813 28.8942 6.46937C29.1954 6.55061 29.5163 6.51344 29.7909 6.36549C30.0656 6.21754 30.2732 5.97005 30.3711 5.67383L30.3809 5.64453L30.9961 3.34961C30.2691 3.14968 29.5325 2.98672 28.7891 2.86133L28.6133 2.83203Z" fill="white"/>
</g>
<defs>
<clipPath id="clip0_1_6">
<rect width="50" height="50" fill="white"/>
</clipPath>
</defs>
</svg>
