<svg width="50" height="50" viewBox="0 0 50 50" fill="none" xmlns="http://www.w3.org/2000/svg">
<g clip-path="url(#clip0_1_2)">
<path d="M1.875 0H48.125C49.1606 0 50 0.839462 50 1.875V48.125C50 49.1606 49.1606 50 48.125 50H1.875C0.839462 50 0 49.1606 0 48.125V1.875C0 0.839462 0.839462 0 1.875 0Z" fill="white"/>
<path d="M1.875 0H48.125C49.1606 0 50 0.839462 50 1.875V48.125C50 49.1606 49.1606 50 48.125 50H1.875C0.839462 50 0 49.1606 0 48.125V1.875C0 0.839462 0.839462 0 1.875 0ZM27.7942 26.6V22.4992H9.99962V26.6H16.3527V44.8588H21.41V26.6H27.7942ZM29.8106 44.3767C30.6262 44.7925 31.5908 45.1044 32.7044 45.3123C33.8179 45.5202 34.9915 45.6242 36.2254 45.6242C37.4279 45.6242 38.5702 45.5098 39.6523 45.2812C40.7346 45.0525 41.6835 44.6756 42.499 44.1506C43.3146 43.6256 43.9602 42.9396 44.436 42.0923C44.9117 41.245 45.1496 40.1977 45.1496 38.9502C45.1496 38.0458 45.0137 37.2533 44.7419 36.5723C44.47 35.8913 44.0779 35.2858 43.5656 34.7556C43.0533 34.2254 42.4388 33.7498 41.7227 33.3288C41.0063 32.9079 40.1987 32.5102 39.2994 32.136C38.6408 31.8656 38.05 31.6031 37.5271 31.3485C37.0044 31.0938 36.56 30.8338 36.194 30.5688C35.8281 30.3037 35.5458 30.0231 35.3471 29.7267C35.1485 29.4306 35.049 29.0952 35.049 28.721C35.049 28.3779 35.1381 28.0687 35.3158 27.7933C35.4935 27.5177 35.7444 27.2812 36.0687 27.0837C36.3927 26.8862 36.79 26.7329 37.2606 26.6237C37.7312 26.5146 38.2538 26.46 38.829 26.46C39.2471 26.46 39.689 26.4912 40.1542 26.5535C40.6196 26.616 41.0875 26.7121 41.5579 26.8419C42.0285 26.9719 42.486 27.1356 42.9304 27.3333C43.3748 27.5308 43.7852 27.7594 44.1615 28.0192V23.3569C43.3983 23.0658 42.5644 22.85 41.66 22.7098C40.7554 22.5694 39.7177 22.4992 38.5467 22.4992C37.3546 22.4992 36.2254 22.6265 35.1588 22.8813C34.0923 23.136 33.154 23.5337 32.3437 24.0742C31.5333 24.6148 30.8929 25.3035 30.4223 26.1402C29.9517 26.9771 29.7165 27.9777 29.7165 29.1419C29.7165 30.6287 30.1479 31.8969 31.0106 32.9467C31.8731 33.9967 33.1827 34.8856 34.9394 35.6133C35.6294 35.894 36.2725 36.1694 36.8685 36.4398C37.4644 36.71 37.9794 36.9908 38.4133 37.2817C38.8473 37.5729 39.1896 37.8898 39.4406 38.2329C39.6915 38.576 39.8171 38.9658 39.8171 39.4025C39.8171 39.7248 39.7387 40.0237 39.5817 40.299C39.425 40.5746 39.1871 40.8137 38.8683 41.0163C38.5492 41.219 38.1519 41.3777 37.6762 41.4919C37.2004 41.6063 36.6437 41.6635 36.0058 41.6635C34.9185 41.6635 33.8415 41.4738 32.775 41.0944C31.7085 40.715 30.7204 40.1458 29.8106 39.3869V44.3767Z" fill="#2A9D8F"/>
</g>
<defs>
<clipPath id="clip0_1_2">
<rect width="50" height="50" fill="white"/>
</clipPath>
</defs>
</svg>
